HIERARCHY
ROOT Hips
{
	OFFSET 0.000000 0.000000 0.000000
	CHANNELS 6 Xposition Yposition Zposition Zrotation Yrotation Xrotation 
	JOINT LHipJoint
	{
		OFFSET 0.000000 0.000000 0.000000
		CHANNELS 3 Zrotation Yrotation Xrotation
		JOINT LeftUpLeg
		{
			OFFSET 1.363060 -1.794630 0.839290
			CHANNELS 3 Zrotation Yrotation Xrotation
			JOINT LeftLeg
			{
				OFFSET 2.448110 -6.726130 0.000000
				CHANNELS 3 Zrotation Yrotation Xrotation
				JOINT LeftFoot
				{
					OFFSET 2.562200 -7.039590 0.000000
					CHANNELS 3 Zrotation Yrotation Xrotation
					JOINT LeftToeBase
					{
						OFFSET 0.157640 -0.433110 2.322550
						CHANNELS 3 Zrotation Yrotation Xrotation
						End Site
						{
							OFFSET 0.000000 0.000000 0.000000
						}
					}
				}
			}
		}
	}
	JOINT RHipJoint
	{
		OFFSET 0.000000 0.000000 0.000000
		CHANNELS 3 Zrotation Yrotation Xrotation
		JOINT RightUpLeg
		{
			OFFSET -1.305520 -1.794630 0.839290
			CHANNELS 3 Zrotation Yrotation Xrotation
			JOINT RightLeg
			{
				OFFSET -2.542530 -6.985550 0.000000
				CHANNELS 3 Zrotation Yrotation Xrotation
				JOINT RightFoot
				{
					OFFSET -2.568260 -7.056230 0.000000
					CHANNELS 3 Zrotation Yrotation Xrotation
					JOINT RightToeBase
					{
						OFFSET -0.164730 -0.452590 2.363150
						CHANNELS 3 Zrotation Yrotation Xrotation
						End Site
						{
							OFFSET 0.000000 0.000000 0.000000
						}
					}
				}
			}
		}
	}
	JOINT LowerBack
	{
		OFFSET 0.000000 0.000000 0.000000
		CHANNELS 3 Zrotation Yrotation Xrotation
		JOINT Spine
		{
			OFFSET 0.028270 2.035590 -0.193380
			CHANNELS 3 Zrotation Yrotation Xrotation
			JOINT Spine1
			{
				OFFSET 0.056720 2.048850 -0.042750
				CHANNELS 3 Zrotation Yrotation Xrotation
				JOINT Neck
				{
					OFFSET 0.000000 0.000000 0.000000
					CHANNELS 3 Zrotation Yrotation Xrotation
					JOINT Neck1
					{
						OFFSET -0.054170 1.746240 0.172020
						CHANNELS 3 Zrotation Yrotation Xrotation
						JOINT Head
						{
							OFFSET 0.104070 1.761360 -0.123970
							CHANNELS 3 Zrotation Yrotation Xrotation
							End Site
							{
								OFFSET 0.000000 0.000000 0.000000
							}
						}
					}
				}
				JOINT LeftShoulder
				{
					OFFSET 0.000000 0.000000 0.000000
					CHANNELS 3 Zrotation Yrotation Xrotation
					JOINT LeftArm
					{
						OFFSET 3.362410 1.200890 -0.311210
						CHANNELS 3 Zrotation Yrotation Xrotation
						JOINT LeftForeArm
						{
							OFFSET 4.983000 -0.000000 -0.000000
							CHANNELS 3 Zrotation Yrotation Xrotation
							JOINT LeftHand
							{
								OFFSET 3.483560 -0.000000 -0.000000
								CHANNELS 3 Zrotation Yrotation Xrotation
								JOINT LeftFingerBase
								{
									OFFSET 0.000000 0.000000 0.000000
									CHANNELS 3 Zrotation Yrotation Xrotation
									JOINT LeftHandIndex1
									{
										OFFSET 0.715260 -0.000000 -0.000000
										CHANNELS 3 Zrotation Yrotation Xrotation
										End Site
										{
											OFFSET 0.000000 0.000000 0.000000
										}
									}
								}
								JOINT LThumb
								{
									OFFSET 0.000000 0.000000 0.000000
									CHANNELS 3 Zrotation Yrotation Xrotation
									End Site
									{
										OFFSET 0.000000 0.000000 0.000000
									}
								}
							}
						}
					}
				}
				JOINT RightShoulder
				{
					OFFSET 0.000000 0.000000 0.000000
					CHANNELS 3 Zrotation Yrotation Xrotation
					JOINT RightArm
					{
						OFFSET -3.136600 1.374050 -0.404650
						CHANNELS 3 Zrotation Yrotation Xrotation
						JOINT RightForeArm
						{
							OFFSET -5.241900 -0.000000 -0.000000
							CHANNELS 3 Zrotation Yrotation Xrotation
							JOINT RightHand
							{
								OFFSET -3.444170 -0.000000 -0.000000
								CHANNELS 3 Zrotation Yrotation Xrotation
								JOINT RightFingerBase
								{
									OFFSET 0.000000 0.000000 0.000000
									CHANNELS 3 Zrotation Yrotation Xrotation
									JOINT RightHandIndex1
									{
										OFFSET -0.622530 -0.000000 -0.000000
										CHANNELS 3 Zrotation Yrotation Xrotation
										End Site
										{
											OFFSET 0.000000 0.000000 0.000000
										}
									}
								}
								JOINT RThumb
								{
									OFFSET 0.000000 0.000000 0.000000
									CHANNELS 3 Zrotation Yrotation Xrotation
									End Site
									{
										OFFSET 0.000000 0.000000 0.000000
									}
								}
							}
						}
					}
				}
			}
		}
	}
}
MOTION
Frames: 9
Frame Time: 0.008333
23.358718 16.234968 4.342434 -137.816674 -85.031567 179.950239 -12.795942 2.325093 -2.398672 -2.694109 9.304785 -12.309734 -0.844919 0.508787 14.401327 1.131948 4.199319 22.938960 1.583100 0.000000 -79.726000 7.170224 -0.423814 4.405660 9.478611 14.360694 -71.384480 3.165975 -2.337069 33.501609 -0.386318 1.341542 -8.797083 -0.200401 0.000000 -31.626300 13.975967 -2.374448 2.188079 2.445777 -2.816445 -1.646575 -5.936422 -2.892757 2.798092 7.840637 -1.753633 2.797578 -3.585727 -0.323792 2.326468 0.000000 0.000000 0.000000 -4.113478 -1.205314 0.116532 -58.360416 -35.065513 11.579305 -1.656835 -63.264328 -0.046623 8.830041 -1.549802 -0.149903 -0.223779 0.362691 -0.000000 0.000000 0.000000 0.000000 0.000000 0.000000 0.000000 13.591693 -5.327604 0.862334 49.697038 -0.179215 -23.547581 3.026578 16.633946 0.007976 -0.625956 4.325260 -0.028237 0.113351 -0.082396 0.000000 0.000000 0.000000 0.000000 0.000000 0.000000 0.000000 
23.143477 16.181542 4.307028 -136.170698 -85.571203 178.111895 -12.800340 2.294565 -2.320342 -2.348203 8.720502 -12.235235 -0.687408 0.566753 15.950935 1.189907 4.089974 23.557807 1.522501 0.000000 -77.128900 7.181116 -0.375639 4.098446 9.425089 14.110909 -71.477398 2.922078 -2.653098 36.464484 -0.509928 1.262663 -10.375293 -0.124199 0.000000 -28.528400 14.313484 -2.477957 2.407728 2.523328 -2.906215 -1.632023 -5.936411 -2.987712 2.669682 8.257950 -1.494629 2.861429 -3.596748 -0.324147 2.344122 0.000000 0.000000 0.000000 -4.355021 -1.692360 0.146589 -58.412118 -34.285926 11.345781 -1.635547 -63.511808 -0.047480 9.078830 -1.923790 -0.184993 -0.225317 0.368047 -0.000000 0.000000 0.000000 0.000000 0.000000 0.000000 0.000000 14.018004 -5.214338 0.902117 49.223597 0.045167 -23.600691 3.016703 16.238672 0.007888 -0.752757 4.419098 -0.033843 0.111953 -0.080469 0.000000 0.000000 0.000000 0.000000 0.000000 0.000000 0.000000 
22.929999 16.133682 4.273011 -133.938447 -86.119254 175.618365 -12.824155 2.232901 -2.267130 -1.991161 8.223110 -12.213936 -0.528615 0.620081 17.664478 1.247593 4.021238 24.036220 1.474800 -0.000000 -73.740000 7.174682 -0.356339 3.762140 9.504590 13.760237 -71.381342 2.719706 -2.949251 39.330314 -0.642540 1.180509 -12.126742 -0.037999 0.000000 -25.736600 14.628292 -2.589967 2.674253 2.593270 -2.996658 -1.605927 -5.946036 -3.082873 2.545616 8.741226 -1.161594 2.980604 -3.619923 -0.325317 2.374541 0.000000 0.000000 0.000000 -4.636963 -2.204867 0.174271 -58.540641 -33.480264 11.085193 -1.625143 -63.574713 -0.048188 9.352899 -2.346092 -0.226285 -0.226852 0.372514 -0.000000 0.000000 0.000000 0.000000 0.000000 0.000000 0.000000 14.560072 -5.072230 0.925530 48.657215 0.386558 -23.660176 3.007319 15.689414 0.007777 -0.949589 4.537875 -0.042548 0.110726 -0.077907 0.000000 0.000000 0.000000 0.000000 0.000000 0.000000 0.000000 
22.718022 16.092302 4.240392 -130.974120 -86.654006 172.349776 -12.879596 2.133902 -2.239754 -1.624685 7.826960 -12.275200 -0.369174 0.667000 19.516947 1.307202 4.054838 24.345419 1.471200 -0.000000 -69.903499 7.139858 -0.382652 3.420581 9.705814 13.354859 -71.086090 2.563973 -3.211473 41.942608 -0.781356 1.079956 -13.936281 0.054300 0.000000 -23.661200 14.919994 -2.708844 2.966919 2.656884 -3.087991 -1.569202 -5.962362 -3.178192 2.440560 9.269514 -0.785553 3.138571 -3.651663 -0.326955 2.413198 0.000000 0.000000 0.000000 -4.973072 -2.684488 0.198483 -58.747055 -32.682229 10.820708 -1.626708 -63.431558 -0.048768 9.654933 -2.783687 -0.271682 -0.228514 0.375408 -0.000000 0.000000 0.000000 0.000000 0.000000 0.000000 0.000000 15.184092 -4.928216 0.930589 48.027284 0.935708 -23.843633 2.998202 14.911345 0.007662 -1.196854 4.678780 -0.054055 0.109563 -0.075024 0.000000 0.000000 0.000000 0.000000 0.000000 0.000000 0.000000 
22.507038 16.058060 4.208961 -127.302690 -87.150290 168.344527 -12.977032 1.998770 -2.238142 -1.254175 7.545607 -12.429022 -0.212950 0.708906 21.485328 1.369675 4.226459 24.454938 1.529500 -0.000000 -65.670200 7.068382 -0.458566 3.081879 10.024740 12.917020 -70.583871 2.457718 -3.433896 44.222242 -0.920449 0.979419 -15.744515 0.152200 0.000000 -22.297900 15.170286 -2.827753 3.278463 2.709433 -3.173953 -1.524296 -5.984834 -3.267502 2.353468 9.842952 -0.364582 3.331570 -3.691878 -0.329043 2.459350 0.000000 0.000000 0.000000 -5.342376 -3.125213 0.217343 -59.045058 -31.865702 10.546761 -1.638107 -63.087030 -0.049253 9.985385 -3.201530 -0.318284 -0.230167 0.376162 -0.000000 0.000000 0.000000 0.000000 0.000000 0.000000 0.000000 15.891424 -4.774562 0.918484 47.337764 1.675772 -24.132723 2.988130 13.939924 0.007489 -1.503848 4.812377 -0.068667 0.108471 -0.071753 0.000000 0.000000 0.000000 0.000000 0.000000 0.000000 0.000000 
22.296625 16.031288 4.178326 -123.157492 -87.572930 163.852380 -13.115691 1.835574 -2.259765 -0.888477 7.380152 -12.683367 -0.066399 0.749630 23.538068 1.437475 4.574413 24.348542 1.667300 0.000000 -61.275300 6.960630 -0.572848 2.752385 10.445229 12.475717 -69.877635 2.398045 -3.610496 46.117980 -1.055070 0.892835 -17.493078 0.253100 0.000001 -21.613900 15.366672 -2.935960 3.602519 2.747230 -3.245149 -1.472881 -6.012488 -3.341530 2.284244 10.453044 0.100717 3.551821 -3.738658 -0.331442 2.511207 0.000000 0.000000 0.000000 -5.729141 -3.511010 0.229631 -59.436295 -31.013622 10.263207 -1.656747 -62.548061 -0.049696 10.347200 -3.565401 -0.363295 -0.231679 0.374282 -0.000000 0.000000 0.000000 0.000000 0.000000 0.000000 0.000000 16.666969 -4.600100 0.891786 46.613257 2.589896 -24.548761 2.975306 12.811213 0.007215 -1.868921 4.910833 -0.085780 0.107393 -0.068229 0.000000 0.000000 0.000000 0.000000 0.000000 0.000000 0.000000 
22.086251 16.011975 4.147841 -118.966187 -87.889070 159.317255 -13.277594 1.657564 -2.302430 -0.537574 7.322742 -13.043387 0.061876 0.794971 25.645927 1.512285 5.121657 24.013767 1.892400 0.000000 -56.881300 6.830956 -0.703353 2.436828 10.944519 12.056672 -68.979545 2.379221 -3.737651 47.606309 -1.180738 0.831941 -19.130763 0.353000 0.000000 -21.534400 15.506000 -3.021920 3.935100 2.768320 -3.291685 -1.414826 -6.046023 -3.390424 2.235616 11.089530 0.578616 3.782957 -3.792295 -0.334080 2.564582 0.000000 0.000000 0.000000 -6.110216 -3.826993 0.231580 -59.920455 -30.112807 9.968701 -1.679013 -61.827352 -0.050131 10.742124 -3.845650 -0.403516 -0.232818 0.369407 0.000000 0.000000 0.000000 0.000000 0.000000 0.000000 0.000000 17.503550 -4.425715 0.853340 45.868903 3.696433 -25.044557 2.958730 11.556941 0.006806 -2.310764 4.955193 -0.105896 0.106434 -0.064604 0.000000 0.000000 0.000000 0.000000 0.000000 0.000000 0.000000 
21.875654 15.999881 4.116865 -115.176063 -88.084318 155.195943 -13.435181 1.476784 -2.363745 -0.208595 7.355431 -13.505047 0.166613 0.849568 27.779198 1.595454 5.877417 23.458388 2.203400 -0.000001 -52.775100 6.701280 -0.830848 2.139625 11.498041 11.674488 -67.904626 2.395188 -3.816269 48.688406 -1.293716 0.805126 -20.622526 0.446900 -0.000000 -21.892000 15.598994 -3.078743 4.270740 2.774952 -3.308428 -1.353219 -6.084378 -3.409460 2.200864 11.739069 1.092459 4.022364 -3.848179 -0.336763 2.619415 0.000000 0.000000 0.000000 -6.471939 -4.071233 0.226721 -60.482358 -29.144244 9.664179 -1.701526 -60.939215 -0.050615 11.173227 -4.019259 -0.436147 -0.233421 0.361436 0.000000 0.000000 0.000000 0.000000 0.000000 0.000000 0.000000 18.367786 -4.210756 0.807971 45.158315 4.911339 -25.653465 2.935556 10.272224 0.006220 -2.817720 4.918488 -0.127013 0.105450 -0.061146 0.000000 0.000000 0.000000 0.000000 0.000000 0.000000 0.000000 
21.664270 15.994587 4.084588 -112.166179 -88.166097 151.877793 -13.560166 1.301836 -2.442042 0.086270 7.455168 -14.068440 0.245380 0.916197 29.919353 1.686119 6.825886 22.681414 2.583800 -0.000000 -49.022000 6.594794 -0.941839 1.866259 12.072143 11.333013 -66.681339 2.439020 -3.850871 49.383885 -1.391052 0.814452 -21.941766 0.529600 -0.000000 -22.523600 15.653207 -3.105878 4.601841 2.769182 -3.296410 -1.288554 -6.127753 -3.399694 2.182920 12.386392 1.597769 4.250812 -3.906431 -0.339443 2.670803 0.000000 0.000000 0.000000 -6.794134 -4.239792 0.213698 -61.109240 -28.103071 9.353624 -1.720658 -59.900258 -0.051139 11.638640 -4.073266 -0.458689 -0.233266 0.350419 0.000000 0.000000 0.000000 0.000000 0.000000 0.000000 0.000000 19.245864 -3.991837 0.758263 44.509210 6.255497 -26.302590 2.905088 8.999635 0.005450 -3.410266 4.803389 -0.149132 0.104566 -0.058083 -0.000000 0.000000 0.000000 0.000000 0.000000 0.000000 0.000000 
